<?xml version="1.0" encoding="UTF-8"?>
<svg xmlns="http://www.w3.org/2000/svg" xmlns:xlink="http://www.w3.org/1999/xlink" width="48pt" height="48pt" viewBox="0 0 48 48" version="1.1">
<g id="surface1">
<path style=" stroke:none;fill-rule:nonzero;fill:rgb(0%,0%,0%);fill-opacity:1;" d="M 13.289062 39.75 L 12.289062 42.75 L 22.210938 42.75 L 21.210938 39.75 Z M 13.289062 39.75 "/>
<path style=" stroke:none;fill-rule:nonzero;fill:rgb(0%,0%,0%);fill-opacity:1;" d="M 26.25 44.25 L 8.25 44.25 C 7.835938 44.25 7.5 44.585938 7.5 45 L 7.5 45.75 L 27 45.75 L 27 45 C 27 44.585938 26.664062 44.25 26.25 44.25 Z M 26.25 44.25 "/>
<path style=" stroke:none;fill-rule:nonzero;fill:rgb(0%,0%,0%);fill-opacity:1;" d="M 2.25 36 C 2.25 37.242188 3.257812 38.25 4.5 38.25 L 30 38.25 C 31.242188 38.25 32.25 37.242188 32.25 36 L 32.25 33.75 L 2.25 33.75 Z M 19.5 35.25 L 21 35.25 L 21 36.75 L 19.5 36.75 Z M 16.5 35.25 L 18 35.25 L 18 36.75 L 16.5 36.75 Z M 13.5 35.25 L 15 35.25 L 15 36.75 L 13.5 36.75 Z M 13.5 35.25 "/>
<path style=" stroke:none;fill-rule:nonzero;fill:rgb(0%,0%,0%);fill-opacity:1;" d="M 21 18.75 L 6 18.75 C 5.585938 18.75 5.25 19.085938 5.25 19.5 L 5.25 28.5 C 5.25 28.914062 5.585938 29.25 6 29.25 L 21 29.25 C 21.414062 29.25 21.75 28.914062 21.75 28.5 L 21.75 19.5 C 21.75 19.085938 21.414062 18.75 21 18.75 Z M 11.03125 26.46875 L 9.96875 27.53125 L 6.441406 24 L 9.96875 20.46875 L 11.03125 21.53125 L 8.558594 24 Z M 12.710938 28.738281 L 11.289062 28.261719 L 14.289062 19.261719 L 15.710938 19.738281 Z M 17.03125 27.53125 L 15.96875 26.46875 L 18.441406 24 L 15.96875 21.53125 L 17.03125 20.46875 L 20.558594 24 Z M 17.03125 27.53125 "/>
<path style=" stroke:none;fill-rule:nonzero;fill:rgb(0%,0%,0%);fill-opacity:1;" d="M 30 15.75 L 4.5 15.75 C 3.257812 15.75 2.25 16.757812 2.25 18 L 2.25 32.25 L 32.25 32.25 L 32.25 18 C 32.25 16.757812 31.242188 15.75 30 15.75 Z M 23.25 28.5 C 23.25 29.742188 22.242188 30.75 21 30.75 L 6 30.75 C 4.757812 30.75 3.75 29.742188 3.75 28.5 L 3.75 19.5 C 3.75 18.257812 4.757812 17.25 6 17.25 L 21 17.25 C 22.242188 17.25 23.25 18.257812 23.25 19.5 Z M 27.75 30.75 L 26.25 30.75 L 26.25 29.25 L 27.75 29.25 Z M 30.75 30.75 L 29.25 30.75 L 29.25 29.25 L 30.75 29.25 Z M 30.75 27.75 L 24.75 27.75 L 24.75 26.25 L 30.75 26.25 Z M 30.75 24.75 L 24.75 24.75 L 24.75 23.25 L 30.75 23.25 Z M 30.75 21.75 L 24.75 21.75 L 24.75 20.25 L 30.75 20.25 Z M 30.75 18.75 L 24.75 18.75 L 24.75 17.25 L 30.75 17.25 Z M 30.75 18.75 "/>
<path style=" stroke:none;fill-rule:nonzero;fill:rgb(0%,0%,0%);fill-opacity:1;" d="M 33.75 20.25 L 42.75 20.25 L 42.75 30.75 L 33.75 30.75 Z M 33.75 20.25 "/>
<path style=" stroke:none;fill-rule:nonzero;fill:rgb(0%,0%,0%);fill-opacity:1;" d="M 11.25 14.25 L 30 14.25 C 32.066406 14.25 33.75 15.933594 33.75 18 L 33.75 18.75 L 44.25 18.75 L 44.25 32.25 L 33.75 32.25 L 33.75 33.75 L 45 33.75 C 45.414062 33.75 45.75 33.414062 45.75 33 L 45.75 8.25 L 11.25 8.25 Z M 44.25 17.25 L 35.25 17.25 L 35.25 15.75 L 44.25 15.75 Z M 44.25 14.25 L 35.25 14.25 L 35.25 12.75 L 44.25 12.75 Z M 15.75 9.75 L 44.25 9.75 L 44.25 11.25 L 15.75 11.25 Z M 12.75 9.75 L 14.25 9.75 L 14.25 11.25 L 12.75 11.25 Z M 12.75 9.75 "/>
<path style=" stroke:none;fill-rule:nonzero;fill:rgb(0%,0%,0%);fill-opacity:1;" d="M 45 2.25 L 12 2.25 C 11.585938 2.25 11.25 2.585938 11.25 3 L 11.25 6.75 L 45.75 6.75 L 45.75 3 C 45.75 2.585938 45.414062 2.25 45 2.25 Z M 14.25 5.25 L 12.75 5.25 L 12.75 3.75 L 14.25 3.75 Z M 17.25 5.25 L 15.75 5.25 L 15.75 3.75 L 17.25 3.75 Z M 20.25 5.25 L 18.75 5.25 L 18.75 3.75 L 20.25 3.75 Z M 20.25 5.25 "/>
</g>
</svg>
