<?xml version="1.0" encoding="UTF-8"?>
<svg xmlns="http://www.w3.org/2000/svg" xmlns:xlink="http://www.w3.org/1999/xlink" width="48pt" height="48pt" viewBox="0 0 48 48" version="1.1">
<g id="surface1">
<path style=" stroke:none;fill-rule:nonzero;fill:rgb(0%,0%,0%);fill-opacity:1;" d="M 23.117188 44.382812 L 24.042969 37.898438 L 35.691406 26.25 L 24.75 26.25 L 24.75 18.75 L 38.25 18.75 L 38.25 23.691406 L 39.75 22.191406 L 39.75 8.25 L 5.25 8.25 L 5.25 9.75 L 19.5 9.75 C 20.742188 9.75 21.75 10.757812 21.75 12 L 21.75 24 C 21.75 25.242188 20.742188 26.25 19.5 26.25 L 5.25 26.25 L 5.25 45 C 5.25 45.414062 5.585938 45.75 6 45.75 L 39 45.75 C 39.414062 45.75 39.75 45.414062 39.75 45 L 39.75 33.308594 L 29.605469 43.457031 Z M 24.75 9.75 L 38.25 9.75 L 38.25 17.25 L 24.75 17.25 Z M 12.75 29.25 L 14.25 29.25 L 14.25 27.75 L 15.75 27.75 L 15.75 29.25 L 17.25 29.25 L 17.25 30.75 L 15.75 30.75 L 15.75 38.25 L 14.25 38.25 L 14.25 30.75 L 12.75 30.75 Z M 6.75 35.25 L 8.25 35.25 L 8.25 27.75 L 9.75 27.75 L 9.75 35.25 L 11.25 35.25 L 11.25 36.75 L 9.75 36.75 L 9.75 38.25 L 8.25 38.25 L 8.25 36.75 L 6.75 36.75 Z M 18.75 44.25 L 6.75 44.25 L 6.75 42.75 L 18.75 42.75 Z M 21.75 44.25 L 20.25 44.25 L 20.25 42.75 L 21.75 42.75 Z M 21.75 41.25 L 6.75 41.25 L 6.75 39.75 L 21.75 39.75 Z M 21.75 38.25 L 20.25 38.25 L 20.25 33.75 L 18.75 33.75 L 18.75 32.25 L 20.25 32.25 L 20.25 27.75 L 21.75 27.75 L 21.75 32.25 L 23.25 32.25 L 23.25 33.75 L 21.75 33.75 Z M 36.75 36.75 L 38.25 36.75 L 38.25 38.25 L 36.75 38.25 Z M 36.75 39.75 L 38.25 39.75 L 38.25 41.25 L 36.75 41.25 Z M 36.75 42.75 L 38.25 42.75 L 38.25 44.25 L 36.75 44.25 Z M 36.75 42.75 "/>
<path style=" stroke:none;fill-rule:nonzero;fill:rgb(0%,0%,0%);fill-opacity:1;" d="M 39.75 3 C 39.75 2.585938 39.414062 2.25 39 2.25 L 6 2.25 C 5.585938 2.25 5.25 2.585938 5.25 3 L 5.25 6.75 L 39.75 6.75 Z M 7.5 5.25 L 6 5.25 L 6 3.75 L 7.5 3.75 Z M 10.5 5.25 L 9 5.25 L 9 3.75 L 10.5 3.75 Z M 13.5 5.25 L 12 5.25 L 12 3.75 L 13.5 3.75 Z M 13.5 5.25 "/>
<path style=" stroke:none;fill-rule:nonzero;fill:rgb(0%,0%,0%);fill-opacity:1;" d="M 20.25 24 L 20.25 12 C 20.25 11.585938 19.914062 11.25 19.5 11.25 L 3 11.25 C 2.585938 11.25 2.25 11.585938 2.25 12 L 2.25 24 C 2.25 24.414062 2.585938 24.75 3 24.75 L 19.5 24.75 C 19.914062 24.75 20.25 24.414062 20.25 24 Z M 8.03125 20.46875 L 6.96875 21.53125 L 3.441406 18 L 6.96875 14.46875 L 8.03125 15.53125 L 5.558594 18 Z M 10.460938 22.738281 L 9.039062 22.261719 L 12.039062 13.261719 L 13.460938 13.738281 Z M 15.53125 21.53125 L 14.46875 20.46875 L 16.941406 18 L 14.46875 15.53125 L 15.53125 14.46875 L 19.058594 18 Z M 15.53125 21.53125 "/>
<path style=" stroke:none;fill-rule:nonzero;fill:rgb(0%,0%,0%);fill-opacity:1;" d="M 26.25 11.25 L 36.75 11.25 L 36.75 15.75 L 26.25 15.75 Z M 26.25 11.25 "/>
<path style=" stroke:none;fill-rule:nonzero;fill:rgb(0%,0%,0%);fill-opacity:1;" d="M 26.25 20.25 L 36.75 20.25 L 36.75 24.75 L 26.25 24.75 Z M 26.25 20.25 "/>
<path style=" stroke:none;fill-rule:nonzero;fill:rgb(0%,0%,0%);fill-opacity:1;" d="M 25.804688 38.25 L 38.242188 25.8125 L 39.433594 27 L 26.996094 39.4375 Z M 25.804688 38.25 "/>
<path style=" stroke:none;fill-rule:nonzero;fill:rgb(0%,0%,0%);fill-opacity:1;" d="M 28.054688 40.5 L 40.492188 28.0625 L 41.679688 29.25 L 29.242188 41.6875 Z M 28.054688 40.5 "/>
<path style=" stroke:none;fill-rule:nonzero;fill:rgb(0%,0%,0%);fill-opacity:1;" d="M 43.320312 21.75 C 42.667969 21.75 42.058594 22.003906 41.597656 22.460938 L 39.308594 24.75 L 42.75 28.191406 L 45.039062 25.902344 C 45.492188 25.449219 45.75 24.824219 45.75 24.183594 C 45.75 22.839844 44.660156 21.75 43.320312 21.75 Z M 43.320312 21.75 "/>
<path style=" stroke:none;fill-rule:nonzero;fill:rgb(0%,0%,0%);fill-opacity:1;" d="M 24.882812 42.617188 L 27.660156 42.21875 L 25.28125 39.839844 Z M 24.882812 42.617188 "/>
</g>
</svg>
