<?xml version="1.0" encoding="UTF-8"?>
<svg xmlns="http://www.w3.org/2000/svg" xmlns:xlink="http://www.w3.org/1999/xlink" width="48pt" height="48pt" viewBox="0 0 48 48" version="1.1">
<g id="surface1">
<path style=" stroke:none;fill-rule:nonzero;fill:rgb(0%,0%,0%);fill-opacity:1;" d="M 24 16.96875 C 20.898438 16.96875 18.375 19.492188 18.375 22.59375 C 18.375 25.695312 20.898438 28.21875 24 28.21875 C 27.101562 28.21875 29.625 25.695312 29.625 22.59375 C 29.625 19.492188 27.101562 16.96875 24 16.96875 Z M 24 16.96875 "/>
<path style=" stroke:none;fill-rule:nonzero;fill:rgb(0%,0%,0%);fill-opacity:1;" d="M 46.824219 19.800781 L 43.089844 19.195312 C 42.621094 17.328125 41.882812 15.558594 40.894531 13.90625 L 43.042969 10.894531 C 43.441406 10.335938 43.378906 9.570312 42.890625 9.085938 L 38.914062 5.109375 C 38.425781 4.621094 37.660156 4.554688 37.105469 4.957031 L 34.09375 7.105469 C 32.441406 6.117188 30.671875 5.378906 28.804688 4.910156 L 28.199219 1.175781 C 28.085938 0.496094 27.5 0 26.8125 0 L 21.1875 0 C 20.5 0 19.914062 0.496094 19.800781 1.175781 L 19.195312 4.910156 C 17.328125 5.378906 15.558594 6.117188 13.90625 7.105469 L 10.894531 4.957031 C 10.335938 4.554688 9.570312 4.621094 9.085938 5.109375 L 5.109375 9.085938 C 4.621094 9.570312 4.558594 10.335938 4.957031 10.894531 L 7.105469 13.90625 C 6.117188 15.558594 5.378906 17.328125 4.910156 19.195312 L 1.175781 19.800781 C 0.496094 19.914062 0 20.5 0 21.1875 L 0 26.8125 C 0 27.5 0.496094 28.085938 1.175781 28.199219 L 4.910156 28.804688 C 5.378906 30.671875 6.117188 32.441406 7.105469 34.09375 L 4.957031 37.105469 C 4.558594 37.664062 4.621094 38.429688 5.109375 38.914062 L 9.085938 42.890625 C 9.570312 43.378906 10.335938 43.4375 10.894531 43.042969 L 13.90625 40.894531 C 15.558594 41.882812 17.328125 42.621094 19.195312 43.089844 L 19.800781 46.824219 C 19.914062 47.503906 20.5 48 21.1875 48 L 26.8125 48 C 27.5 48 28.085938 47.503906 28.199219 46.824219 L 28.804688 43.089844 C 30.671875 42.621094 32.441406 41.882812 34.09375 40.894531 L 37.105469 43.042969 C 37.660156 43.4375 38.425781 43.378906 38.914062 42.890625 L 42.890625 38.914062 C 43.378906 38.429688 43.441406 37.664062 43.042969 37.105469 L 40.894531 34.09375 C 41.882812 32.441406 42.621094 30.671875 43.089844 28.804688 L 46.824219 28.199219 C 47.503906 28.085938 48 27.5 48 26.8125 L 48 21.1875 C 48 20.5 47.503906 19.914062 46.824219 19.800781 Z M 24 39.46875 C 15.46875 39.46875 8.53125 32.53125 8.53125 24 C 8.53125 15.46875 15.46875 8.53125 24 8.53125 C 32.53125 8.53125 39.46875 15.46875 39.46875 24 C 39.46875 32.53125 32.53125 39.46875 24 39.46875 Z M 24 39.46875 "/>
<path style=" stroke:none;fill-rule:nonzero;fill:rgb(0%,0%,0%);fill-opacity:1;" d="M 30.496094 27.914062 C 28.949219 29.800781 26.625 31.03125 24 31.03125 C 21.375 31.03125 19.050781 29.800781 17.503906 27.914062 C 16.15625 29.105469 15.171875 30.671875 14.628906 32.429688 C 16.949219 35.003906 20.269531 36.65625 24 36.65625 C 27.730469 36.65625 31.050781 35.003906 33.371094 32.429688 C 32.828125 30.671875 31.84375 29.105469 30.496094 27.914062 Z M 30.496094 27.914062 "/>
</g>
</svg>
